<svg xmlns="http://www.w3.org/2000/svg" width="52" height="52" viewBox="0 0 52 52"><defs><clipPath id="bsaqa"><path fill="#fff" d="M25.884-.018c14.295 0 25.884 11.589 25.884 25.884S40.18 51.75 25.884 51.75 0 40.161 0 25.866 11.589-.018 25.884-.018z"/></clipPath></defs><g><g><path fill="#fff" d="M25.884-.018c14.295 0 25.884 11.589 25.884 25.884S40.18 51.75 25.884 51.75 0 40.161 0 25.866 11.589-.018 25.884-.018z"/><path fill="none" stroke="#444" stroke-linecap="round" stroke-linejoin="round" stroke-miterlimit="50" stroke-width="4" d="M25.884-.018c14.295 0 25.884 11.589 25.884 25.884S40.18 51.75 25.884 51.75 0 40.161 0 25.866 11.589-.018 25.884-.018z" clip-path="url(&quot;#bsaqa&quot;)"/></g><g><path fill="#fff" d="M25.888 15.474c5.737 0 10.388 4.65 10.388 10.388 0 5.737-4.65 10.388-10.388 10.388-5.737 0-10.389-4.65-10.389-10.388 0-5.737 4.652-10.388 10.389-10.388z"/><path fill="#62d1ba" d="M25.888 15.474c5.737 0 10.388 4.65 10.388 10.388 0 5.737-4.65 10.388-10.388 10.388-5.737 0-10.389-4.65-10.389-10.388 0-5.737 4.652-10.388 10.389-10.388z"/></g></g></svg>