<svg xmlns="http://www.w3.org/2000/svg" width="40" height="40" viewBox="0 0 40 40"><defs><clipPath id="t74na"><path fill="#fff" d="M19.886.451c10.721 0 19.413 8.692 19.413 19.413 0 10.722-8.692 19.413-19.413 19.413C9.164 39.277.473 30.586.473 19.864.473 9.143 9.164.451 19.886.451z"/></clipPath></defs><g><g><path fill="#fff" d="M19.886.451c10.721 0 19.413 8.692 19.413 19.413 0 10.722-8.692 19.413-19.413 19.413C9.164 39.277.473 30.586.473 19.864.473 9.143 9.164.451 19.886.451z"/><path fill="none" stroke="#444" stroke-linecap="round" stroke-linejoin="round" stroke-miterlimit="50" stroke-width="4" d="M19.886.451c10.721 0 19.413 8.692 19.413 19.413 0 10.722-8.692 19.413-19.413 19.413C9.164 39.277.473 30.586.473 19.864.473 9.143 9.164.451 19.886.451z" clip-path="url(&quot;#t74na&quot;)"/></g><g><path fill="#fff" d="M19.889 12.07a7.791 7.791 0 1 1 0 15.582 7.791 7.791 0 0 1 0-15.582z"/><path fill="#62d1ba" d="M19.889 12.07a7.791 7.791 0 1 1 0 15.582 7.791 7.791 0 0 1 0-15.582z"/></g></g></svg>