<svg xmlns="http://www.w3.org/2000/svg" width="52" height="52" viewBox="0 0 52 52"><defs><clipPath id="73rga"><path fill="#fff" d="M25.884-.018c14.295 0 25.884 11.588 25.884 25.884 0 14.295-11.589 25.884-25.884 25.884S0 40.161 0 25.866C0 11.57 11.589-.018 25.884-.018z"/></clipPath></defs><g><g><path fill="#fff" d="M25.884-.018c14.295 0 25.884 11.588 25.884 25.884 0 14.295-11.589 25.884-25.884 25.884S0 40.161 0 25.866C0 11.57 11.589-.018 25.884-.018z"/><path fill="none" stroke="#444" stroke-linecap="round" stroke-linejoin="round" stroke-miterlimit="50" stroke-width="4" d="M25.884-.018c14.295 0 25.884 11.588 25.884 25.884 0 14.295-11.589 25.884-25.884 25.884S0 40.161 0 25.866C0 11.57 11.589-.018 25.884-.018z" clip-path="url(&quot;#73rga&quot;)"/></g></g></svg>